<svg width="24" height="24" viewBox="0 0 24 24" fill="none" xmlns="http://www.w3.org/2000/svg">
<path fill-rule="evenodd" clip-rule="evenodd" d="M12.75 2C12.75 1.80109 12.671 1.61032 12.5303 1.46967C12.3897 1.32902 12.1989 1.25 12 1.25C11.8011 1.25 11.6103 1.32902 11.4697 1.46967C11.329 1.61032 11.25 1.80109 11.25 2V2.278C6.26601 2.658 2.33001 6.783 2.25101 11.845C2.2484 12.0642 2.32413 12.2771 2.46456 12.4454C2.605 12.6137 2.80091 12.7263 3.01701 12.763C5.74401 13.218 8.49601 13.463 11.25 13.502V19C11.25 19.1989 11.171 19.3897 11.0303 19.5303C10.8897 19.671 10.6989 19.75 10.5 19.75C10.3011 19.75 10.1103 19.671 9.96968 19.5303C9.82903 19.3897 9.75001 19.1989 9.75001 19V18.5C9.75001 18.3011 9.67099 18.1103 9.53034 17.9697C9.38969 17.829 9.19892 17.75 9.00001 17.75C8.8011 17.75 8.61033 17.829 8.46968 17.9697C8.32903 18.1103 8.25001 18.3011 8.25001 18.5V19C8.25001 19.5967 8.48706 20.169 8.90902 20.591C9.33098 21.0129 9.90327 21.25 10.5 21.25C11.0967 21.25 11.669 21.0129 12.091 20.591C12.513 20.169 12.75 19.5967 12.75 19V13.502C15.5091 13.4641 18.2613 13.217 20.983 12.763C21.1991 12.7263 21.395 12.6137 21.5355 12.4454C21.6759 12.2771 21.7516 12.0642 21.749 11.845C21.7099 9.41604 20.7658 7.08909 19.1013 5.31961C17.4369 3.55013 15.172 2.46549 12.75 2.278V2ZM20.226 11.366C20.0675 9.29287 19.1321 7.35602 17.6069 5.94295C16.0817 4.52989 14.0792 3.74483 12 3.74483C9.92083 3.74483 7.91832 4.52989 6.39311 5.94295C4.86791 7.35602 3.93249 9.29287 3.77401 11.366C9.22401 12.22 14.775 12.22 20.226 11.366Z" fill="#ED1944"/>
</svg>
