<svg width="24" height="24" viewBox="0 0 24 24" fill="none" xmlns="http://www.w3.org/2000/svg">
<path d="M23 9.71005C23.0494 8.27871 22.7364 6.85807 22.09 5.58005C21.6514 5.05565 21.0427 4.70176 20.37 4.58005C17.5875 4.32689 14.7935 4.22341 12 4.27005C9.21661 4.22305 6.43273 4.32318 3.65995 4.57005C3.11177 4.66977 2.60447 4.9269 2.19995 5.31005C1.29995 6.14005 1.19995 7.56005 1.09995 8.76005C0.953987 10.9176 0.953987 13.0825 1.09995 15.2401C1.12926 15.9154 1.22982 16.5858 1.39995 17.2401C1.52053 17.7451 1.76448 18.2124 2.10995 18.6001C2.51722 19.0035 3.03634 19.2753 3.59995 19.3801C5.75581 19.6468 7.92816 19.7571 10.1 19.7101C13.6 19.7601 16.67 19.7101 20.3 19.4301C20.877 19.3305 21.4104 19.0586 21.83 18.6501C22.1096 18.3697 22.3187 18.027 22.44 17.6501C22.7972 16.5526 22.9729 15.4041 22.96 14.2501C23 13.6901 23 10.3101 23 9.71005ZM9.73995 14.8501V8.66005L15.66 11.7701C14 12.6901 11.81 13.7301 9.73995 14.8501Z" fill="#323C40"/>
</svg>
